<?xml version="1.0" encoding="UTF-8"?>
<svg width="76px" height="76px" viewBox="0 0 76 76" version="1.1" xmlns="http://www.w3.org/2000/svg" xmlns:xlink="http://www.w3.org/1999/xlink">
    <!-- Generator: Sketch 44.1 (41455) - http://www.bohemiancoding.com/sketch -->
    <title>google-plus</title>
    <desc>Created with Sketch.</desc>
    <defs></defs>
    <g id="Page-2" stroke="none" stroke-width="1" fill="none" fill-rule="evenodd">
        <g id="google-plus" fill-rule="nonzero">
            <path d="M37.9115068,0 C58.7628356,0 75.8230137,17.0601781 75.8230137,37.9115068 C75.8230137,58.7628356 58.7628356,75.8230137 37.9115068,75.8230137 C17.0601781,75.8230137 0,58.7625753 0,37.9115068 C0,17.0604384 17.0601781,0 37.9115068,0 Z" id="Shape" fill="#DD4B39"></path>
            <g id="Group" transform="translate(14.315068, 22.904110)" fill="#FFFFFF">
                <polygon id="Shape" points="42.7890411 8.60960274 42.7890411 12.8747123 47.0538904 12.8747123 47.0538904 17.1398219 42.7890411 17.1398219 42.7890411 21.4049315 38.5239315 21.4049315 38.5239315 17.1398219 34.2588219 17.1398219 34.2588219 12.8747123 38.5239315 12.8747123 38.5239315 8.60960274"></polygon>
                <path d="M4.40357534,25.6697808 C-1.28315068,19.9830548 -1.28315068,10.0312192 4.64042466,4.34475342 C8.90553425,0.0796438356 15.0659589,-0.868013699 20.5158356,1.26441096 L22.6482603,2.44917808 L25.0177945,4.10790411 L21.2266438,7.89905479 L19.8050274,6.95139726 C16.4878356,4.8189726 11.7487671,5.29267123 8.66868493,8.3730137 C5.11438356,11.9273151 4.87753425,18.3248493 8.66868493,22.116 C12.2229863,25.9071507 18.6205205,25.9071507 21.9377123,22.116 C22.8853699,21.1683425 23.8332877,19.7464658 24.070137,18.3248493 L24.070137,17.8508904 L15.5401781,17.8508904 L15.5401781,13.1120822 L29.0460548,13.1120822 L29.2829041,14.2968493 L29.2829041,17.6140411 C29.0460548,20.6943836 27.8612877,23.774726 25.7286027,25.9071507 C20.042137,31.3565068 10.0903014,31.3565068 4.40357534,25.6697808 Z" id="Shape"></path>
            </g>
        </g>
    </g>
</svg>