<?xml version="1.0" encoding="UTF-8"?>
<svg width="596px" height="587px" viewBox="0 0 596 587" version="1.1" xmlns="http://www.w3.org/2000/svg" xmlns:xlink="http://www.w3.org/1999/xlink">
    <!-- Generator: Sketch 44.1 (41455) - http://www.bohemiancoding.com/sketch -->
    <title>Slice 2</title>
    <desc>Created with Sketch.</desc>
    <defs></defs>
    <g id="Page-2" stroke="none" stroke-width="1" fill="none" fill-rule="evenodd" fill-opacity="0.5">
        <g id="star" transform="translate(215.000000, 60.000000)" fill-rule="nonzero" fill="#FFD200">
            <path d="M21.7388807,9.6114569 C22.1751968,9.18772124 22.3292168,8.56582946 22.1410194,7.98772665 C21.9523782,7.40962383 21.4610232,6.996946 20.8573712,6.90936807 L15.4901945,6.1322245 C15.2616057,6.09905104 15.0640872,5.95618401 14.961999,5.74962394 L12.5624822,0.903645027 C12.2930581,0.359157984 11.7462204,0.0207887011 11.1367982,0.0207887011 C10.5278198,0.0207887011 9.98098211,0.359157984 9.71155801,0.903645027 L7.31159736,5.75006625 C7.20950915,5.95662632 7.0115468,6.09949335 6.78295798,6.13266681 L1.41578133,6.90981038 C0.81257317,6.996946 0.320774317,7.41006615 0.13213306,7.98816896 C-0.0560643345,8.56627178 0.0979557033,9.18816356 0.534271833,9.61189921 L4.41761855,13.3839427 C4.58317899,13.5449445 4.65907936,13.7767164 4.62001952,14.0031806 L3.70388881,19.3295112 C3.6226621,19.7983627 3.74605568,20.2543872 4.05054486,20.6139875 C4.52370152,21.1743978 5.34972829,21.3451306 6.01019462,20.9992419 L10.8101159,18.4842514 C11.0107414,18.3794233 11.2632988,18.3803079 11.4634805,18.4842514 L16.2638456,20.9992419 C16.4973169,21.1217626 16.7463234,21.1836864 17.0033193,21.1836864 C17.4724812,21.1836864 17.9172307,20.9757994 18.2230515,20.6139875 C18.5279846,20.2543872 18.6509343,19.7974781 18.5697076,19.3295112 L17.653133,14.0031806 C17.6140731,13.7762741 17.6899735,13.5449445 17.855534,13.3839427 L21.7388807,9.6114569 Z" id="Shape"></path>
        </g>
        <g id="star" transform="translate(24.500000, 32.000000) scale(1, -1) translate(-24.500000, -32.000000) translate(13.000000, 21.000000)" fill-rule="nonzero" fill="#FFD200">
            <path d="M21.7388807,9.6114569 C22.1751968,9.18772124 22.3292168,8.56582946 22.1410194,7.98772665 C21.9523782,7.40962383 21.4610232,6.996946 20.8573712,6.90936807 L15.4901945,6.1322245 C15.2616057,6.09905104 15.0640872,5.95618401 14.961999,5.74962394 L12.5624822,0.903645027 C12.2930581,0.359157984 11.7462204,0.0207887011 11.1367982,0.0207887011 C10.5278198,0.0207887011 9.98098211,0.359157984 9.71155801,0.903645027 L7.31159736,5.75006625 C7.20950915,5.95662632 7.0115468,6.09949335 6.78295798,6.13266681 L1.41578133,6.90981038 C0.81257317,6.996946 0.320774317,7.41006615 0.13213306,7.98816896 C-0.0560643345,8.56627178 0.0979557033,9.18816356 0.534271833,9.61189921 L4.41761855,13.3839427 C4.58317899,13.5449445 4.65907936,13.7767164 4.62001952,14.0031806 L3.70388881,19.3295112 C3.6226621,19.7983627 3.74605568,20.2543872 4.05054486,20.6139875 C4.52370152,21.1743978 5.34972829,21.3451306 6.01019462,20.9992419 L10.8101159,18.4842514 C11.0107414,18.3794233 11.2632988,18.3803079 11.4634805,18.4842514 L16.2638456,20.9992419 C16.4973169,21.1217626 16.7463234,21.1836864 17.0033193,21.1836864 C17.4724812,21.1836864 17.9172307,20.9757994 18.2230515,20.6139875 C18.5279846,20.2543872 18.6509343,19.7974781 18.5697076,19.3295112 L17.653133,14.0031806 C17.6140731,13.7762741 17.6899735,13.5449445 17.855534,13.3839427 L21.7388807,9.6114569 Z" id="Shape"></path>
        </g>
        <g id="star" transform="translate(501.500000, 213.000000) scale(1, -1) translate(-501.500000, -213.000000) translate(490.000000, 202.000000)" fill-rule="nonzero" fill="#FFD200">
            <path d="M21.7388807,9.6114569 C22.1751968,9.18772124 22.3292168,8.56582946 22.1410194,7.98772665 C21.9523782,7.40962383 21.4610232,6.996946 20.8573712,6.90936807 L15.4901945,6.1322245 C15.2616057,6.09905104 15.0640872,5.95618401 14.961999,5.74962394 L12.5624822,0.903645027 C12.2930581,0.359157984 11.7462204,0.0207887011 11.1367982,0.0207887011 C10.5278198,0.0207887011 9.98098211,0.359157984 9.71155801,0.903645027 L7.31159736,5.75006625 C7.20950915,5.95662632 7.0115468,6.09949335 6.78295798,6.13266681 L1.41578133,6.90981038 C0.81257317,6.996946 0.320774317,7.41006615 0.13213306,7.98816896 C-0.0560643345,8.56627178 0.0979557033,9.18816356 0.534271833,9.61189921 L4.41761855,13.3839427 C4.58317899,13.5449445 4.65907936,13.7767164 4.62001952,14.0031806 L3.70388881,19.3295112 C3.6226621,19.7983627 3.74605568,20.2543872 4.05054486,20.6139875 C4.52370152,21.1743978 5.34972829,21.3451306 6.01019462,20.9992419 L10.8101159,18.4842514 C11.0107414,18.3794233 11.2632988,18.3803079 11.4634805,18.4842514 L16.2638456,20.9992419 C16.4973169,21.1217626 16.7463234,21.1836864 17.0033193,21.1836864 C17.4724812,21.1836864 17.9172307,20.9757994 18.2230515,20.6139875 C18.5279846,20.2543872 18.6509343,19.7974781 18.5697076,19.3295112 L17.653133,14.0031806 C17.6140731,13.7762741 17.6899735,13.5449445 17.855534,13.3839427 L21.7388807,9.6114569 Z" id="Shape"></path>
        </g>
        <g id="star" transform="translate(47.500000, 169.000000) scale(1, -1) translate(-47.500000, -169.000000) translate(36.000000, 158.000000)" fill-rule="nonzero" fill="#FFD200">
            <path d="M21.7388807,9.6114569 C22.1751968,9.18772124 22.3292168,8.56582946 22.1410194,7.98772665 C21.9523782,7.40962383 21.4610232,6.996946 20.8573712,6.90936807 L15.4901945,6.1322245 C15.2616057,6.09905104 15.0640872,5.95618401 14.961999,5.74962394 L12.5624822,0.903645027 C12.2930581,0.359157984 11.7462204,0.0207887011 11.1367982,0.0207887011 C10.5278198,0.0207887011 9.98098211,0.359157984 9.71155801,0.903645027 L7.31159736,5.75006625 C7.20950915,5.95662632 7.0115468,6.09949335 6.78295798,6.13266681 L1.41578133,6.90981038 C0.81257317,6.996946 0.320774317,7.41006615 0.13213306,7.98816896 C-0.0560643345,8.56627178 0.0979557033,9.18816356 0.534271833,9.61189921 L4.41761855,13.3839427 C4.58317899,13.5449445 4.65907936,13.7767164 4.62001952,14.0031806 L3.70388881,19.3295112 C3.6226621,19.7983627 3.74605568,20.2543872 4.05054486,20.6139875 C4.52370152,21.1743978 5.34972829,21.3451306 6.01019462,20.9992419 L10.8101159,18.4842514 C11.0107414,18.3794233 11.2632988,18.3803079 11.4634805,18.4842514 L16.2638456,20.9992419 C16.4973169,21.1217626 16.7463234,21.1836864 17.0033193,21.1836864 C17.4724812,21.1836864 17.9172307,20.9757994 18.2230515,20.6139875 C18.5279846,20.2543872 18.6509343,19.7974781 18.5697076,19.3295112 L17.653133,14.0031806 C17.6140731,13.7762741 17.6899735,13.5449445 17.855534,13.3839427 L21.7388807,9.6114569 Z" id="Shape"></path>
        </g>
        <g id="star" transform="translate(83.000000, 475.000000)" fill-rule="nonzero" fill="#FFD200">
            <path d="M21.7388807,9.6114569 C22.1751968,9.18772124 22.3292168,8.56582946 22.1410194,7.98772665 C21.9523782,7.40962383 21.4610232,6.996946 20.8573712,6.90936807 L15.4901945,6.1322245 C15.2616057,6.09905104 15.0640872,5.95618401 14.961999,5.74962394 L12.5624822,0.903645027 C12.2930581,0.359157984 11.7462204,0.0207887011 11.1367982,0.0207887011 C10.5278198,0.0207887011 9.98098211,0.359157984 9.71155801,0.903645027 L7.31159736,5.75006625 C7.20950915,5.95662632 7.0115468,6.09949335 6.78295798,6.13266681 L1.41578133,6.90981038 C0.81257317,6.996946 0.320774317,7.41006615 0.13213306,7.98816896 C-0.0560643345,8.56627178 0.0979557033,9.18816356 0.534271833,9.61189921 L4.41761855,13.3839427 C4.58317899,13.5449445 4.65907936,13.7767164 4.62001952,14.0031806 L3.70388881,19.3295112 C3.6226621,19.7983627 3.74605568,20.2543872 4.05054486,20.6139875 C4.52370152,21.1743978 5.34972829,21.3451306 6.01019462,20.9992419 L10.8101159,18.4842514 C11.0107414,18.3794233 11.2632988,18.3803079 11.4634805,18.4842514 L16.2638456,20.9992419 C16.4973169,21.1217626 16.7463234,21.1836864 17.0033193,21.1836864 C17.4724812,21.1836864 17.9172307,20.9757994 18.2230515,20.6139875 C18.5279846,20.2543872 18.6509343,19.7974781 18.5697076,19.3295112 L17.653133,14.0031806 C17.6140731,13.7762741 17.6899735,13.5449445 17.855534,13.3839427 L21.7388807,9.6114569 Z" id="Shape"></path>
        </g>
        <g id="star" transform="translate(249.500000, 357.000000) scale(1, -1) translate(-249.500000, -357.000000) translate(238.000000, 346.000000)" fill-rule="nonzero" fill="#FFD200">
            <path d="M21.7388807,9.6114569 C22.1751968,9.18772124 22.3292168,8.56582946 22.1410194,7.98772665 C21.9523782,7.40962383 21.4610232,6.996946 20.8573712,6.90936807 L15.4901945,6.1322245 C15.2616057,6.09905104 15.0640872,5.95618401 14.961999,5.74962394 L12.5624822,0.903645027 C12.2930581,0.359157984 11.7462204,0.0207887011 11.1367982,0.0207887011 C10.5278198,0.0207887011 9.98098211,0.359157984 9.71155801,0.903645027 L7.31159736,5.75006625 C7.20950915,5.95662632 7.0115468,6.09949335 6.78295798,6.13266681 L1.41578133,6.90981038 C0.81257317,6.996946 0.320774317,7.41006615 0.13213306,7.98816896 C-0.0560643345,8.56627178 0.0979557033,9.18816356 0.534271833,9.61189921 L4.41761855,13.3839427 C4.58317899,13.5449445 4.65907936,13.7767164 4.62001952,14.0031806 L3.70388881,19.3295112 C3.6226621,19.7983627 3.74605568,20.2543872 4.05054486,20.6139875 C4.52370152,21.1743978 5.34972829,21.3451306 6.01019462,20.9992419 L10.8101159,18.4842514 C11.0107414,18.3794233 11.2632988,18.3803079 11.4634805,18.4842514 L16.2638456,20.9992419 C16.4973169,21.1217626 16.7463234,21.1836864 17.0033193,21.1836864 C17.4724812,21.1836864 17.9172307,20.9757994 18.2230515,20.6139875 C18.5279846,20.2543872 18.6509343,19.7974781 18.5697076,19.3295112 L17.653133,14.0031806 C17.6140731,13.7762741 17.6899735,13.5449445 17.855534,13.3839427 L21.7388807,9.6114569 Z" id="Shape"></path>
        </g>
        <g id="star" transform="translate(490.500000, 71.000000) scale(1, -1) translate(-490.500000, -71.000000) translate(479.000000, 60.000000)" fill-rule="nonzero" fill="#FFD200">
            <path d="M21.7388807,9.6114569 C22.1751968,9.18772124 22.3292168,8.56582946 22.1410194,7.98772665 C21.9523782,7.40962383 21.4610232,6.996946 20.8573712,6.90936807 L15.4901945,6.1322245 C15.2616057,6.09905104 15.0640872,5.95618401 14.961999,5.74962394 L12.5624822,0.903645027 C12.2930581,0.359157984 11.7462204,0.0207887011 11.1367982,0.0207887011 C10.5278198,0.0207887011 9.98098211,0.359157984 9.71155801,0.903645027 L7.31159736,5.75006625 C7.20950915,5.95662632 7.0115468,6.09949335 6.78295798,6.13266681 L1.41578133,6.90981038 C0.81257317,6.996946 0.320774317,7.41006615 0.13213306,7.98816896 C-0.0560643345,8.56627178 0.0979557033,9.18816356 0.534271833,9.61189921 L4.41761855,13.3839427 C4.58317899,13.5449445 4.65907936,13.7767164 4.62001952,14.0031806 L3.70388881,19.3295112 C3.6226621,19.7983627 3.74605568,20.2543872 4.05054486,20.6139875 C4.52370152,21.1743978 5.34972829,21.3451306 6.01019462,20.9992419 L10.8101159,18.4842514 C11.0107414,18.3794233 11.2632988,18.3803079 11.4634805,18.4842514 L16.2638456,20.9992419 C16.4973169,21.1217626 16.7463234,21.1836864 17.0033193,21.1836864 C17.4724812,21.1836864 17.9172307,20.9757994 18.2230515,20.6139875 C18.5279846,20.2543872 18.6509343,19.7974781 18.5697076,19.3295112 L17.653133,14.0031806 C17.6140731,13.7762741 17.6899735,13.5449445 17.855534,13.3839427 L21.7388807,9.6114569 Z" id="Shape"></path>
        </g>
        <g id="star" transform="translate(281.000000, 224.000000)" fill-rule="nonzero" fill="#FFD200">
            <path d="M21.7388807,9.6114569 C22.1751968,9.18772124 22.3292168,8.56582946 22.1410194,7.98772665 C21.9523782,7.40962383 21.4610232,6.996946 20.8573712,6.90936807 L15.4901945,6.1322245 C15.2616057,6.09905104 15.0640872,5.95618401 14.961999,5.74962394 L12.5624822,0.903645027 C12.2930581,0.359157984 11.7462204,0.0207887011 11.1367982,0.0207887011 C10.5278198,0.0207887011 9.98098211,0.359157984 9.71155801,0.903645027 L7.31159736,5.75006625 C7.20950915,5.95662632 7.0115468,6.09949335 6.78295798,6.13266681 L1.41578133,6.90981038 C0.81257317,6.996946 0.320774317,7.41006615 0.13213306,7.98816896 C-0.0560643345,8.56627178 0.0979557033,9.18816356 0.534271833,9.61189921 L4.41761855,13.3839427 C4.58317899,13.5449445 4.65907936,13.7767164 4.62001952,14.0031806 L3.70388881,19.3295112 C3.6226621,19.7983627 3.74605568,20.2543872 4.05054486,20.6139875 C4.52370152,21.1743978 5.34972829,21.3451306 6.01019462,20.9992419 L10.8101159,18.4842514 C11.0107414,18.3794233 11.2632988,18.3803079 11.4634805,18.4842514 L16.2638456,20.9992419 C16.4973169,21.1217626 16.7463234,21.1836864 17.0033193,21.1836864 C17.4724812,21.1836864 17.9172307,20.9757994 18.2230515,20.6139875 C18.5279846,20.2543872 18.6509343,19.7974781 18.5697076,19.3295112 L17.653133,14.0031806 C17.6140731,13.7762741 17.6899735,13.5449445 17.855534,13.3839427 L21.7388807,9.6114569 Z" id="Shape"></path>
        </g>
        <g id="star" transform="translate(561.500000, 497.000000) scale(-1, -1) translate(-561.500000, -497.000000) translate(550.000000, 486.000000)" fill-rule="nonzero" fill="#FFD200">
            <path d="M21.7388807,9.6114569 C22.1751968,9.18772124 22.3292168,8.56582946 22.1410194,7.98772665 C21.9523782,7.40962383 21.4610232,6.996946 20.8573712,6.90936807 L15.4901945,6.1322245 C15.2616057,6.09905104 15.0640872,5.95618401 14.961999,5.74962394 L12.5624822,0.903645027 C12.2930581,0.359157984 11.7462204,0.0207887011 11.1367982,0.0207887011 C10.5278198,0.0207887011 9.98098211,0.359157984 9.71155801,0.903645027 L7.31159736,5.75006625 C7.20950915,5.95662632 7.0115468,6.09949335 6.78295798,6.13266681 L1.41578133,6.90981038 C0.81257317,6.996946 0.320774317,7.41006615 0.13213306,7.98816896 C-0.0560643345,8.56627178 0.0979557033,9.18816356 0.534271833,9.61189921 L4.41761855,13.3839427 C4.58317899,13.5449445 4.65907936,13.7767164 4.62001952,14.0031806 L3.70388881,19.3295112 C3.6226621,19.7983627 3.74605568,20.2543872 4.05054486,20.6139875 C4.52370152,21.1743978 5.34972829,21.3451306 6.01019462,20.9992419 L10.8101159,18.4842514 C11.0107414,18.3794233 11.2632988,18.3803079 11.4634805,18.4842514 L16.2638456,20.9992419 C16.4973169,21.1217626 16.7463234,21.1836864 17.0033193,21.1836864 C17.4724812,21.1836864 17.9172307,20.9757994 18.2230515,20.6139875 C18.5279846,20.2543872 18.6509343,19.7974781 18.5697076,19.3295112 L17.653133,14.0031806 C17.6140731,13.7762741 17.6899735,13.5449445 17.855534,13.3839427 L21.7388807,9.6114569 Z" id="Shape"></path>
        </g>
        <g id="star" transform="translate(428.000000, 294.000000)" fill-rule="nonzero" fill="#FFD200">
            <path d="M21.7388807,9.6114569 C22.1751968,9.18772124 22.3292168,8.56582946 22.1410194,7.98772665 C21.9523782,7.40962383 21.4610232,6.996946 20.8573712,6.90936807 L15.4901945,6.1322245 C15.2616057,6.09905104 15.0640872,5.95618401 14.961999,5.74962394 L12.5624822,0.903645027 C12.2930581,0.359157984 11.7462204,0.0207887011 11.1367982,0.0207887011 C10.5278198,0.0207887011 9.98098211,0.359157984 9.71155801,0.903645027 L7.31159736,5.75006625 C7.20950915,5.95662632 7.0115468,6.09949335 6.78295798,6.13266681 L1.41578133,6.90981038 C0.81257317,6.996946 0.320774317,7.41006615 0.13213306,7.98816896 C-0.0560643345,8.56627178 0.0979557033,9.18816356 0.534271833,9.61189921 L4.41761855,13.3839427 C4.58317899,13.5449445 4.65907936,13.7767164 4.62001952,14.0031806 L3.70388881,19.3295112 C3.6226621,19.7983627 3.74605568,20.2543872 4.05054486,20.6139875 C4.52370152,21.1743978 5.34972829,21.3451306 6.01019462,20.9992419 L10.8101159,18.4842514 C11.0107414,18.3794233 11.2632988,18.3803079 11.4634805,18.4842514 L16.2638456,20.9992419 C16.4973169,21.1217626 16.7463234,21.1836864 17.0033193,21.1836864 C17.4724812,21.1836864 17.9172307,20.9757994 18.2230515,20.6139875 C18.5279846,20.2543872 18.6509343,19.7974781 18.5697076,19.3295112 L17.653133,14.0031806 C17.6140731,13.7762741 17.6899735,13.5449445 17.855534,13.3839427 L21.7388807,9.6114569 Z" id="Shape"></path>
        </g>
        <g id="star" transform="translate(352.000000, 114.000000)" fill-rule="nonzero" fill="#FFD200">
            <path d="M21.7388807,9.6114569 C22.1751968,9.18772124 22.3292168,8.56582946 22.1410194,7.98772665 C21.9523782,7.40962383 21.4610232,6.996946 20.8573712,6.90936807 L15.4901945,6.1322245 C15.2616057,6.09905104 15.0640872,5.95618401 14.961999,5.74962394 L12.5624822,0.903645027 C12.2930581,0.359157984 11.7462204,0.0207887011 11.1367982,0.0207887011 C10.5278198,0.0207887011 9.98098211,0.359157984 9.71155801,0.903645027 L7.31159736,5.75006625 C7.20950915,5.95662632 7.0115468,6.09949335 6.78295798,6.13266681 L1.41578133,6.90981038 C0.81257317,6.996946 0.320774317,7.41006615 0.13213306,7.98816896 C-0.0560643345,8.56627178 0.0979557033,9.18816356 0.534271833,9.61189921 L4.41761855,13.3839427 C4.58317899,13.5449445 4.65907936,13.7767164 4.62001952,14.0031806 L3.70388881,19.3295112 C3.6226621,19.7983627 3.74605568,20.2543872 4.05054486,20.6139875 C4.52370152,21.1743978 5.34972829,21.3451306 6.01019462,20.9992419 L10.8101159,18.4842514 C11.0107414,18.3794233 11.2632988,18.3803079 11.4634805,18.4842514 L16.2638456,20.9992419 C16.4973169,21.1217626 16.7463234,21.1836864 17.0033193,21.1836864 C17.4724812,21.1836864 17.9172307,20.9757994 18.2230515,20.6139875 C18.5279846,20.2543872 18.6509343,19.7974781 18.5697076,19.3295112 L17.653133,14.0031806 C17.6140731,13.7762741 17.6899735,13.5449445 17.855534,13.3839427 L21.7388807,9.6114569 Z" id="Shape"></path>
        </g>
        <g id="star" transform="translate(304.000000, 464.000000)" fill-rule="nonzero" fill="#FFD200">
            <path d="M21.7388807,9.6114569 C22.1751968,9.18772124 22.3292168,8.56582946 22.1410194,7.98772665 C21.9523782,7.40962383 21.4610232,6.996946 20.8573712,6.90936807 L15.4901945,6.1322245 C15.2616057,6.09905104 15.0640872,5.95618401 14.961999,5.74962394 L12.5624822,0.903645027 C12.2930581,0.359157984 11.7462204,0.0207887011 11.1367982,0.0207887011 C10.5278198,0.0207887011 9.98098211,0.359157984 9.71155801,0.903645027 L7.31159736,5.75006625 C7.20950915,5.95662632 7.0115468,6.09949335 6.78295798,6.13266681 L1.41578133,6.90981038 C0.81257317,6.996946 0.320774317,7.41006615 0.13213306,7.98816896 C-0.0560643345,8.56627178 0.0979557033,9.18816356 0.534271833,9.61189921 L4.41761855,13.3839427 C4.58317899,13.5449445 4.65907936,13.7767164 4.62001952,14.0031806 L3.70388881,19.3295112 C3.6226621,19.7983627 3.74605568,20.2543872 4.05054486,20.6139875 C4.52370152,21.1743978 5.34972829,21.3451306 6.01019462,20.9992419 L10.8101159,18.4842514 C11.0107414,18.3794233 11.2632988,18.3803079 11.4634805,18.4842514 L16.2638456,20.9992419 C16.4973169,21.1217626 16.7463234,21.1836864 17.0033193,21.1836864 C17.4724812,21.1836864 17.9172307,20.9757994 18.2230515,20.6139875 C18.5279846,20.2543872 18.6509343,19.7974781 18.5697076,19.3295112 L17.653133,14.0031806 C17.6140731,13.7762741 17.6899735,13.5449445 17.855534,13.3839427 L21.7388807,9.6114569 Z" id="Shape"></path>
        </g>
        <g id="star" transform="translate(83.000000, 294.000000)" fill-rule="nonzero" fill="#FFD200">
            <path d="M21.7388807,9.6114569 C22.1751968,9.18772124 22.3292168,8.56582946 22.1410194,7.98772665 C21.9523782,7.40962383 21.4610232,6.996946 20.8573712,6.90936807 L15.4901945,6.1322245 C15.2616057,6.09905104 15.0640872,5.95618401 14.961999,5.74962394 L12.5624822,0.903645027 C12.2930581,0.359157984 11.7462204,0.0207887011 11.1367982,0.0207887011 C10.5278198,0.0207887011 9.98098211,0.359157984 9.71155801,0.903645027 L7.31159736,5.75006625 C7.20950915,5.95662632 7.0115468,6.09949335 6.78295798,6.13266681 L1.41578133,6.90981038 C0.81257317,6.996946 0.320774317,7.41006615 0.13213306,7.98816896 C-0.0560643345,8.56627178 0.0979557033,9.18816356 0.534271833,9.61189921 L4.41761855,13.3839427 C4.58317899,13.5449445 4.65907936,13.7767164 4.62001952,14.0031806 L3.70388881,19.3295112 C3.6226621,19.7983627 3.74605568,20.2543872 4.05054486,20.6139875 C4.52370152,21.1743978 5.34972829,21.3451306 6.01019462,20.9992419 L10.8101159,18.4842514 C11.0107414,18.3794233 11.2632988,18.3803079 11.4634805,18.4842514 L16.2638456,20.9992419 C16.4973169,21.1217626 16.7463234,21.1836864 17.0033193,21.1836864 C17.4724812,21.1836864 17.9172307,20.9757994 18.2230515,20.6139875 C18.5279846,20.2543872 18.6509343,19.7974781 18.5697076,19.3295112 L17.653133,14.0031806 C17.6140731,13.7762741 17.6899735,13.5449445 17.855534,13.3839427 L21.7388807,9.6114569 Z" id="Shape"></path>
        </g>
    </g>
</svg>