<?xml version="1.0" encoding="UTF-8"?>
<svg width="100px" height="97px" viewBox="0 0 100 97" version="1.1" xmlns="http://www.w3.org/2000/svg" xmlns:xlink="http://www.w3.org/1999/xlink">
    <!-- Generator: Sketch 44.1 (41455) - http://www.bohemiancoding.com/sketch -->
    <title>Slice 4</title>
    <desc>Created with Sketch.</desc>
    <defs></defs>
    <g id="Page-2" stroke="none" stroke-width="1" fill="none" fill-rule="evenodd">
        <g id="Group-5" transform="translate(-572.000000, -1103.000000)">
            <g id="Group-2">
                <g id="Sun" transform="translate(578.000000, 1106.000000)">
                    <path d="M44.4117539,88.9145341 C45.8504303,88.9145341 46.4733287,86.1895995 48.4389655,86.0097696 C50.4046023,85.8299397 51.275671,88.4059594 52.5478256,88.1701904 C54.1674666,87.8700217 53.8746531,85.6619981 56.0344959,85.0347354 C58.1943387,84.4074727 59.7597311,86.208139 60.9482287,85.7305408 C62.5699068,85.0788689 61.1676877,82.1105158 63.5883419,80.7910887 C66.0089961,79.4716615 68.6186916,81.7753158 70.0102716,80.7910887 C71.391688,79.8140499 69.4904032,77.1275786 71.2492669,75.5927525 C73.0081307,74.0579263 75.9347519,75.8021743 76.851051,74.8216624 C77.7887226,73.8182802 75.5440654,71.5868106 76.851051,69.9000764 C78.1580366,68.2133423 81.1564446,69.4730586 81.8961472,68.3106988 C82.7250625,67.0081511 79.8683981,65.139205 81.032076,62.7496344 C82.1957539,60.3600637 85.6922206,60.9881435 86.2981994,59.271243 C86.7047111,58.1194865 84.1417135,56.9908555 84.606027,55.2337937 C85.0703406,53.4767319 87.9173662,53.5114809 88.1226601,52.3670936 C88.2662966,51.5664083 84.4318589,49.9879684 84.606027,48.0222924 C84.7801951,46.0566163 88.8235078,46.3147634 88.8235078,44.457267 C88.8235078,43.1318705 85.346223,42.1641176 85.1745015,40.2715937 C85.00278,38.3790697 88.3401156,37.7283966 88.0889526,36.3618162 C87.8022211,34.8017068 85.3019546,35.0310884 84.606027,32.6885687 C83.9100995,30.346049 86.0059896,28.7608919 85.4002562,27.3115569 C84.8149617,25.9111262 82.1138108,26.3269996 80.8183005,24.0296373 C79.5227902,21.7322751 81.4456833,19.8325681 80.2909074,18.2510152 C79.259854,16.8389096 76.0738105,17.5038759 74.8872741,16.2249615 C73.7007378,14.9460471 74.5506762,11.7587264 73.243837,10.6411463 C72.0981565,9.66138557 69.8206082,12.0505866 67.7581108,10.6411463 C65.6956135,9.23170589 66.8144142,6.02421916 65.3110307,5.22013697 C64.1016915,4.57332384 61.4247583,7.6350636 59.2786055,6.77111117 C57.1324527,5.90715875 58.2060786,2.14628012 56.4460821,1.65147508 C54.788263,1.18539614 53.4224283,5.10222816 49.8346248,4.67595527 C46.2468213,4.24968238 45.3326621,0.0501894487 42.9685698,0.0501894487 C40.12109,0.0501894487 41.1019736,3.80302168 36.8996793,4.67595527 C32.6973849,5.54888887 30.4908384,2.13235808 27.8675919,3.18708321 C26.273162,3.82815348 27.5856147,6.54063359 25.0468047,7.93870217 C22.5079948,9.33677074 20.0136937,7.25721661 18.5083128,8.34103896 C17.0624592,9.38200367 18.4917541,12.0694829 16.4965508,13.9060492 C14.5013476,15.7426155 11.8070801,14.2178074 10.6418786,15.5820194 C9.48398949,16.93767 11.0680162,19.662215 9.63202548,21.8345662 C8.19603481,24.0069175 5.45136402,23.017252 4.61896966,24.6934113 C3.79863088,26.3452947 5.76919369,29.137445 4.93470154,31.560982 C4.1002094,33.9845191 1.30398128,33.538279 0.907418956,35.4725188 C0.597415605,36.9845657 3.44669775,38.3187619 3.22832204,40.4809944 C3.00994633,42.6432269 0,42.9831185 0,44.457267 C0,46.8337622 3.22970344,48.0437529 3.67728877,51.0668337 C4.12487409,54.0899146 1.32950187,55.4877436 1.92081678,57.430848 C2.48326644,59.279099 5.43088719,59.1718991 6.65159773,61.8364251 C7.87230827,64.500951 5.76451239,66.4703135 6.84765803,68.1849915 C7.75350017,69.6189885 10.2846188,68.5248583 11.9359438,70.5692401 C13.5872687,72.6136218 12.0833491,74.9902591 13.3384838,76.220797 C14.8048677,77.6584441 17.6083553,75.7394151 20.1293953,77.5948839 C22.6504353,79.4503527 21.5486908,82.639493 23.4405036,83.6558169 C24.9062365,84.4432412 27.3278892,81.5777144 29.7049301,82.5110162 C32.081971,83.444318 31.4040654,87.0174832 33.1852114,87.4818987 C34.8628635,87.9193291 36.9360847,84.695231 39.596539,85.0347354 C42.2569933,85.3742399 42.3478625,88.9145341 44.4117539,88.9145341 Z" id="Oval-23" fill="#FAC842"></path>
                    <ellipse id="Oval-18" fill="#F49A42" cx="44.4117539" cy="44.457267" rx="37.1311385" ry="37.1691905"></ellipse>
                    <g id="Group-3" transform="translate(55.749034, 29.028878) rotate(-23.000000) translate(-55.749034, -29.028878) translate(47.249034, 20.028878)" fill="#F28544">
                        <path d="M0.256388291,16.3634741 C1.28180491,17.8430747 15.6697437,18.4179933 16.6895497,16.3634741 C17.7093558,14.308955 11.1108637,2.88800031 8.35649958,2.88800031 C5.60213543,2.88800031 -0.769028328,14.8838735 0.256388291,16.3634741 Z" id="Oval-21" transform="translate(8.470723, 10.292712) rotate(-180.000000) translate(-8.470723, -10.292712) "></path>
                        <path d="M0.309714886,13.6089431 C1.33513151,15.0885437 15.549118,15.3448885 16.4194784,13.6089431 C17.2898389,11.8729977 11.3393107,0.219899987 8.58494659,0.219899987 C5.83058244,0.219899987 -0.715701733,12.1293425 0.309714886,13.6089431 Z" id="Oval-21" transform="translate(8.353656, 7.518291) rotate(-360.000000) translate(-8.353656, -7.518291) "></path>
                    </g>
                    <g id="Group-4" transform="translate(63.565560, 57.543606) rotate(19.000000) translate(-63.565560, -57.543606) translate(59.565560, 53.543606)" fill="#F28646">
                        <ellipse id="Oval-22" cx="3.64030769" cy="3.64403828" rx="3.64030769" ry="1.28033778"></ellipse>
                        <ellipse id="Oval-22" transform="translate(3.640308, 3.644038) scale(1, -1) rotate(-90.000000) translate(-3.640308, -3.644038) " cx="3.64030769" cy="3.64403828" rx="3.64030769" ry="1.28033778"></ellipse>
                    </g>
                    <path d="M28.7150781,70.4103767 C29.5914654,70.3140801 32.0616818,67.180449 32.0616818,63.1961313 C32.0616818,59.2118136 29.8376261,55.9585118 28.7150781,55.981886 C27.59253,56.0052602 25.3684744,59.2118136 25.3684744,63.1961313 C25.3684744,67.180449 27.8386907,70.5066733 28.7150781,70.4103767 Z" id="Oval-20" fill="#F28544" transform="translate(28.715078, 63.197089) rotate(-14.000000) translate(-28.715078, -63.197089) "></path>
                    <path d="M35.8913015,63.7993559 C35.8950597,62.7290093 32.7314758,60.6598857 28.8336333,60.6598857 C24.9357907,60.6598857 21.7791167,62.8562131 21.775965,63.7993559 C21.7728134,64.7424988 24.9357907,66.9388261 28.8336333,66.9388261 C32.7314758,66.9388261 35.8875434,64.8697026 35.8913015,63.7993559 Z" id="Oval-20" fill="#F28544" transform="translate(28.833634, 63.799356) rotate(-14.000000) translate(-28.833634, -63.799356) "></path>
                    <ellipse id="Oval-19" fill="#F28544" cx="35.189641" cy="44.9431388" rx="2.66955898" ry="2.67229474"></ellipse>
                </g>
            </g>
        </g>
    </g>
</svg>